<?xml version="1.0" encoding="UTF-8" standalone="no"?>
<svg
   xmlns:dc="http://purl.org/dc/elements/1.1/"
   xmlns:cc="http://creativecommons.org/ns#"
   xmlns:rdf="http://www.w3.org/1999/02/22-rdf-syntax-ns#"
   xmlns:svg="http://www.w3.org/2000/svg"
   xmlns="http://www.w3.org/2000/svg"
   viewBox="0 0 332 329.33334"
   height="329.33334"
   width="332"
   xml:space="preserve"
   id="svg2"
   version="1.1"><metadata
     id="metadata8"><rdf:RDF><cc:Work
         rdf:about=""><dc:format>image/svg+xml</dc:format><dc:type
           rdf:resource="http://purl.org/dc/dcmitype/StillImage" /></cc:Work></rdf:RDF></metadata><defs
     id="defs6" /><g
     transform="matrix(1.3333333,0,0,-1.3333333,0,329.33333)"
     id="g10"><g
       transform="scale(0.1)"
       id="g12"><path
         id="path14"
         style="fill:#c5457d;fill-opacity:1;fill-rule:evenodd;stroke:none"
         d="M 1155.43,169.488 C 1010.12,169.84 870.781,196.02 737.422,248.012 604.449,300.352 483.789,375.82 375.43,474.488 267.422,574.18 181.762,688.32 118.441,816.988 55.1211,945.66 16.9492,1082.66 3.94922,1228.01 c -12,151.99 3.47266,297.34 46.48048,435.97 43.0117,138.36 108.8323,263.87 197.5003,376.53 88.672,112.65 195.16,206.33 319.492,280.97 124.027,74.69 261.367,124.03 412.027,148.01 1.332,0.35 2.821,0.51 4.5,0.51 6.321,0 12.141,-1.99 17.501,-6.02 6.64,-5.31 10.31,-12.14 10.97,-20.46 0.67,-7.7 -1.33,-14.54 -5.97,-20.51 -4.34,-5.67 -10.36,-9.18 -18.009,-10.51 C 845.43,2389.49 714.922,2342.66 596.949,2271.99 478.949,2201.02 377.77,2111.99 293.441,2005 209.449,1898.01 146.949,1778.67 105.941,1646.99 64.9219,1515.35 50.2695,1377.34 61.9492,1233.01 73.9492,1095 110.121,964.84 170.43,842.5 230.781,720.512 312.109,612.148 414.449,517.5 517.422,423.52 632.109,351.68 758.441,301.988 885.121,252.66 1017.62,227.852 1155.94,227.5 c 6.33,-0.352 12.65,-0.352 18.98,0 7.7,-0.352 14.18,-2.852 19.53,-7.5 5.67,-5 8.83,-11.328 9.5,-18.98 0.66,-8.36 -1.84,-15.668 -7.5,-22.04 -5.67,-5.968 -12.66,-9.14 -21.02,-9.492 -6.64,0 -13.16,0 -19.49,0 -0.35,0 -0.51,0 -0.51,0" /><path
         id="path16"
         style="fill:#0a0a0a;fill-opacity:1;fill-rule:evenodd;stroke:none"
         d="M 1316.45,350 C 1190.12,331.02 1065.94,335.16 943.949,362.5 822.27,390.16 708.441,439.648 602.422,511.02 497.77,582.66 410.27,669.488 339.922,771.48 c -70.66,102.348 -120.473,215 -149.492,338.01 -1.641,7.35 -0.821,14.18 2.5,20.51 3.672,6.33 9.019,10.82 16.019,13.52 1.641,0.66 3.321,0.97 5,0.97 6.992,1.33 13.672,0 20,-3.98 6.641,-4.34 10.973,-10.67 13,-19.03 27.66,-115.66 74.653,-221.48 140.981,-317.5 66.332,-95.968 148.672,-177.652 246.992,-245 99.687,-67.3 207.027,-113.98 322.027,-140 114.651,-25.968 231.491,-30 350.471,-11.992 55,8.364 108.67,21.332 161.02,39.032 103.67,35.66 197.15,86.128 280.51,151.48 83.32,65.352 153.47,142.66 210.5,231.988 57,89.032 98.32,186.992 123.99,294.032 3.32,12.3 11.17,19.64 23.51,21.99 10.32,1.33 18.99,-1.68 25.98,-9.03 6.68,-7.3 9.02,-15.97 6.99,-25.97 C 2112.93,997.148 2069.1,893.16 2008.44,798.52 1948.09,703.52 1873.59,621.328 1784.92,551.988 1696.6,482.66 1597.27,429.18 1486.95,391.48 1431.6,372.5 1374.77,358.672 1316.45,350" /><path
         id="path18"
         style="fill:#57bd68;fill-opacity:1;fill-rule:evenodd;stroke:none"
         d="m 1908.95,997.5 c -5.36,11.33 -14.18,17.34 -26.53,18.01 -11.64,-0.35 -20.31,-5.86 -25.97,-16.53 C 1826.09,940.66 1789.26,886.84 1745.94,837.5 1702.27,788.16 1653.28,745 1598.95,708.012 1502.27,642.34 1396.95,600 1282.93,581.02 c -45.31,-7.348 -90.82,-10.668 -136.48,-10 -115.67,1.992 -224.501,26.992 -326.528,75 -10.66,4.332 -20.313,3.32 -28.981,-3.008 -8.32,-6.024 -12.152,-14.852 -11.492,-26.532 1.332,-10.308 6.641,-17.96 15.981,-22.96 109.34,-51.372 226.17,-78.168 350.51,-80.508 48.98,-0.352 97.85,3.316 146.48,10.968 122.35,20.36 235.35,65.668 339.03,136.02 58.32,39.648 110.82,85.82 157.5,138.52 46.64,52.652 86.17,110.308 118.47,172.96 4.34,8.36 4.85,17.04 1.53,26.02 M 312.422,1735 c 50.668,106.33 117.187,198.83 199.527,277.5 82,78.98 175.16,141.02 279.5,186.02 104.641,45 215.821,70.15 333.471,75.46 55,2.04 110.2,-0.66 165.51,-7.96 119.02,-16.37 230,-53.01 333.01,-110 103.01,-57.35 192.85,-132.19 269.49,-224.54 49.69,-60.66 91.33,-126.48 125,-197.5 4.69,-9.33 12.19,-14.8 22.5,-16.48 11.33,-1.33 20.35,2.5 26.99,11.48 6.68,9.34 7.7,19.34 3.01,30 -35.66,75.36 -80,145 -133.01,209.03 -81.33,98.32 -176.64,177.81 -285.97,238.47 -109.03,60.67 -226.84,99.69 -353.52,117.04 -58.67,7.96 -117.15,10.66 -175.51,7.96 -124.65,-5.66 -242.498,-32.3 -353.471,-80 C 658.281,2203.83 559.449,2138.32 472.422,2055 385.121,1971.68 314.449,1873.67 260.43,1761.02 c -3.981,-9.03 -4.141,-17.7 -0.508,-26.02 3.668,-7.66 9.687,-12.85 18.008,-15.51 1.332,-0.31 2.851,-0.66 4.492,-0.97 13.359,-1.02 23.359,4.49 30,16.48 M 1168.44,1.01953 C 1018.79,1.33203 874.102,26.0195 734.449,75 c -140,48.98 -268.359,119.84 -385,212.5 -6.679,5.352 -10.347,12.34 -11.008,21.02 -0.671,8.32 1.829,15.66 7.5,21.992 5.661,5.968 12.5,9.328 20.508,10 h 1.481 c 6.679,0 12.66,-2.192 18.011,-6.532 C 497.621,245.352 620.27,177.5 753.949,130.512 887.27,83.832 1025.43,60.3516 1168.44,60 c 21.33,0 42.85,0.5117 64.49,1.4805 168.36,9.3398 326.52,49.1795 474.49,119.5395 148.01,70.312 278.67,167.96 392.03,292.96 88.64,99.032 159.14,206.372 211.49,322.04 51.99,115.968 85.82,235.82 101.48,359.49 15.35,123.67 12.7,246.99 -7.97,370 -20.66,123.01 -59.53,241.17 -116.52,354.49 -56.64,113.32 -131.48,217.5 -224.49,312.5 -5.35,5.66 -8.17,12.34 -8.52,20 0,7.66 2.7,14.49 8.01,20.51 5.35,5.97 11.99,9.14 20,9.49 h 1.99 c 8.01,0 15,-3.01 21.02,-8.98 96.99,-99.69 175.35,-208.87 235,-327.5 59.65,-118.68 100.35,-242.35 121.99,-371.02 21.68,-128.67 24.34,-257.85 8.01,-387.5 -16.33,-129.34 -51.84,-254.648 -106.49,-376.02 -54.33,-120.968 -128,-233.468 -221.01,-337.5 C 2064.77,346.988 1977.42,272.5 1881.45,210.512 1785.43,148.52 1683.09,99.8398 1574.45,64.4883 1465.78,29.4883 1352.93,8.83203 1235.94,2.5 1213.28,1.48047 1190.78,1.01953 1168.44,1.01953" /><path
         id="path20"
         style="fill:#4a617d;fill-opacity:1;fill-rule:evenodd;stroke:none"
         d="m 334.059,1390 v 235.9 H 369.77 L 498.238,1428.52 V 1625.9 H 526.48 V 1390 h -35.699 l -128.48,197.73 V 1390 Z m 311.453,167.19 c 12.187,0 22.5,-1.41 30.968,-4.26 8.442,-2.81 15,-6.91 19.571,-12.34 4.609,-5.43 7.898,-11.45 9.89,-18.09 1.989,-6.64 3.008,-14.3 3.008,-22.93 V 1390 h -19.258 l -6.332,14.96 c -13.398,-12.19 -28.789,-18.28 -46.129,-18.28 -15.511,0 -28.64,4.69 -39.378,14.02 -10.743,9.38 -16.09,20.28 -16.09,32.82 0,6.64 1.207,12.61 3.668,17.93 2.422,5.31 5.941,9.72 10.511,13.28 4.61,3.51 9.84,6.52 15.7,9.02 5.859,2.5 12.699,4.41 20.507,5.74 7.813,1.33 15.622,2.27 23.473,2.81 7.859,0.55 16.488,0.82 25.899,0.82 v 12.97 c 0,3.75 -0.11,7.03 -0.391,9.81 -0.27,2.73 -1.207,6.05 -2.731,9.96 -1.558,3.87 -3.668,7.03 -6.328,9.53 -2.66,2.5 -6.64,4.65 -11.949,6.49 -5.32,1.79 -11.601,2.73 -18.91,2.73 -11.289,0 -25.902,-2.5 -43.832,-7.46 l -5.149,19.92 c 18.122,6.72 35.891,10.12 53.282,10.12 z m 36.008,-132.31 v 37.66 h -10.11 c -6.289,0 -11.801,-0.12 -16.449,-0.31 -4.652,-0.24 -10.082,-0.86 -16.332,-1.92 -6.25,-1.05 -11.359,-2.54 -15.348,-4.41 -3.98,-1.88 -7.422,-4.61 -10.23,-8.2 -2.821,-3.6 -4.223,-7.9 -4.223,-12.86 0,-6.99 3.512,-13.2 10.551,-18.59 7.031,-5.43 15.391,-8.16 25.152,-8.16 14.258,0 26.598,5.58 36.989,16.79 z m 183.128,129.14 h 28.243 L 835.27,1390 h -28.239 l -57.422,164.02 h 29.879 l 42.5,-136.95 z m 66.403,71.88 h 32.2305 v -31.3672 H 931.051 Z m 2.5,-71.88 h 27.2305 V 1390 H 933.551 Z m 78.679,-85.82 c 0,12.93 1.56,24.57 4.65,34.92 3.12,10.36 7.22,18.83 12.38,25.43 5.15,6.57 11.21,12.04 18.16,16.41 6.99,4.38 14.14,7.5 21.45,9.3 7.3,1.83 14.92,2.77 22.89,2.77 15.7,0 31.05,-3.28 45.97,-9.8 l -6.64,-19.93 c -12.26,4.18 -24.29,6.29 -36.01,6.29 -5.74,0 -11.17,-0.5 -16.25,-1.56 -5.12,-1.05 -10.16,-2.97 -15.2,-5.74 -5.04,-2.77 -9.37,-6.33 -12.97,-10.7 -3.59,-4.38 -6.48,-10.08 -8.71,-17.19 -2.22,-7.07 -3.32,-15.2 -3.32,-24.38 0,-10.07 1.17,-18.98 3.48,-26.68 2.34,-7.69 5.39,-13.9 9.14,-18.67 3.75,-4.76 8.28,-8.63 13.52,-11.6 5.27,-3.01 10.58,-5.08 15.93,-6.25 5.39,-1.13 11.18,-1.72 17.39,-1.72 10.39,0 20.78,1.84 31.21,5.47 l 6.64,-18.75 c -15.74,-6.09 -31.53,-9.14 -47.35,-9.14 -7.3,0 -14.29,0.7 -20.97,2.15 -6.72,1.44 -13.52,4.06 -20.43,7.89 -6.92,3.83 -12.89,8.67 -17.93,14.53 -5.04,5.86 -9.14,13.71 -12.31,23.48 -3.12,9.8 -4.72,20.97 -4.72,33.47 z m 282.89,-44.33 v 130.15 h 27.22 V 1390 h -19.06 l -5.82,13.79 c -20.94,-11.41 -40.23,-17.11 -57.93,-17.11 -8.98,0 -16.8,1.41 -23.44,4.22 -6.64,2.85 -11.75,6.37 -15.43,10.55 -3.63,4.21 -6.6,9.57 -8.78,16.01 -2.23,6.49 -3.64,12.66 -4.26,18.52 -0.59,5.86 -0.9,12.57 -0.9,20.11 v 97.93 h 27.23 v -99.92 c 0,-28.67 12.46,-43.01 37.34,-43.01 12.85,0 27.46,4.26 43.83,12.78 z m 155.08,133.32 c 2.3,0 4.49,-0.04 6.56,-0.08 2.03,-0.08 4.02,-0.2 5.97,-0.43 1.92,-0.23 3.6,-0.39 4.97,-0.51 1.4,-0.12 3,-0.31 4.8,-0.66 1.84,-0.31 3.16,-0.59 3.98,-0.74 0.86,-0.16 2.23,-0.51 4.18,-0.98 1.92,-0.51 3.13,-0.82 3.56,-0.94 0.43,-0.12 1.76,-0.47 3.9,-1.13 2.15,-0.67 3.4,-1.06 3.76,-1.17 l -7,-20.75 c -14.84,4.07 -27.89,6.14 -39.18,6.14 -6.52,0 -12.3,-0.67 -17.34,-1.99 -5.04,-1.33 -8.91,-2.93 -11.64,-4.81 -2.7,-1.91 -4.92,-4.1 -6.64,-6.56 -1.72,-2.5 -2.81,-4.69 -3.32,-6.56 -0.47,-1.88 -0.74,-3.72 -0.74,-5.47 0,-4.57 2.34,-8.6 7.07,-12.15 4.68,-3.52 10.54,-6.41 17.57,-8.63 7.04,-2.19 14.65,-4.85 22.86,-7.89 8.16,-3.05 15.78,-6.26 22.81,-9.61 7.03,-3.4 12.89,-8.13 17.62,-14.18 4.68,-6.1 7.03,-13.13 7.03,-21.1 0,-4.53 -0.59,-8.94 -1.72,-13.2 -1.17,-4.26 -3.4,-8.71 -6.64,-13.36 -3.28,-4.65 -7.5,-8.67 -12.62,-12.03 -5.16,-3.4 -12.03,-6.17 -20.66,-8.4 -8.64,-2.23 -18.56,-3.32 -29.73,-3.32 -16.95,0 -35.55,4.14 -55.78,12.46 l 7.62,20.59 c 11.4,-4.22 20.74,-7.19 27.96,-8.99 7.27,-1.76 14.38,-2.65 21.37,-2.65 26.99,0 40.51,8.59 40.51,25.74 0,3.75 -1.33,7.07 -3.99,9.96 -2.65,2.89 -6.21,5.23 -10.62,7.07 -4.45,1.8 -9.45,3.71 -15.04,5.62 -5.59,1.96 -11.29,3.75 -17.11,5.4 -5.82,1.67 -11.52,3.86 -17.11,6.56 -5.58,2.73 -10.58,5.7 -15,8.98 -4.45,3.24 -7.97,7.5 -10.62,12.7 -2.66,5.19 -3.99,11.05 -3.99,17.58 0,3.98 0.63,8.04 1.92,12.22 1.25,4.14 3.63,8.52 7.11,13.09 3.51,4.61 7.85,8.63 13.04,12.15 5.2,3.47 12.15,6.36 20.82,8.63 8.71,2.26 18.52,3.4 29.5,3.4 z m 113.86,32.19 -9.1,22.42 c 22.77,11.29 45.04,16.95 66.72,16.95 20.59,0 37.62,-5.31 51.05,-15.94 13.44,-10.62 20.16,-23.98 20.16,-40.04 0,-12.26 -3.28,-23.24 -9.88,-32.85 -6.56,-9.65 -15.35,-16.56 -26.29,-20.74 16.05,-4.34 27.81,-11.45 35.27,-21.37 7.46,-9.88 11.21,-21.72 11.21,-35.43 0,-15.7 -3.98,-29.65 -11.87,-41.83 -7.93,-12.19 -18.79,-21.57 -32.62,-28.13 -13.83,-6.6 -29.49,-9.88 -46.99,-9.88 -20.59,0 -41.13,4.26 -61.6,12.77 l 7.97,22.93 c 23.04,-6.33 41.01,-9.49 53.98,-9.49 17.27,0 31.95,4.45 44.14,13.28 12.19,8.87 18.28,20.27 18.28,34.22 0,3.87 -0.51,7.66 -1.52,11.37 -0.98,3.71 -3.09,7.81 -6.29,12.38 -3.2,4.53 -7.46,8.44 -12.7,11.76 -5.27,3.32 -12.61,6.13 -21.99,8.4 -9.41,2.26 -20.31,3.39 -32.73,3.39 v 24.26 c 9.96,0 18.86,0.9 26.64,2.74 7.81,1.79 14.06,4.1 18.79,6.87 4.69,2.78 8.55,6.02 11.6,9.73 3.05,3.71 5.16,7.26 6.33,10.7 1.13,3.44 1.72,6.92 1.72,10.47 0,9.61 -4.18,17.81 -12.62,24.65 -8.4,6.8 -19.57,10.19 -33.52,10.19 -16.17,0 -34.22,-4.61 -54.14,-13.78 z m 323.09,38.35 c 5.74,0 12.62,-0.39 20.58,-1.17 l -1.99,-24.57 c -5.97,0.67 -11.91,1.02 -17.77,1.02 -10.63,0 -20.35,-1.02 -29.14,-3.01 -8.79,-1.99 -16.17,-4.53 -22.15,-7.62 -5.98,-3.12 -11.37,-6.99 -16.09,-11.72 -4.77,-4.68 -8.56,-9.33 -11.29,-13.86 -2.78,-4.53 -5.16,-9.69 -7.15,-15.51 -1.99,-5.82 -3.4,-10.86 -4.26,-15.2 -0.82,-4.29 -1.56,-9.06 -2.23,-14.25 6.22,6.95 13.99,12.5 23.4,16.68 9.42,4.14 19.77,6.21 31.06,6.21 21.6,0 39.26,-7 53.04,-21.02 13.79,-13.98 20.67,-31.87 20.67,-53.67 0,-15.2 -3.36,-29.14 -10.04,-41.95 -6.72,-12.78 -16.33,-23.01 -28.91,-30.71 -12.54,-7.69 -26.79,-11.52 -42.73,-11.52 -4.53,0 -9.03,0.31 -13.44,0.98 -4.45,0.66 -9.3,1.95 -14.53,3.82 -5.27,1.88 -10.16,4.34 -14.69,7.31 -4.53,3.01 -8.98,7.07 -13.36,12.3 -4.37,5.2 -8.08,11.18 -11.13,17.93 -3.05,6.72 -5.51,15.04 -7.38,24.89 -1.88,9.84 -2.82,20.74 -2.82,32.69 0,21.72 2.27,40.9 6.8,57.62 4.53,16.72 10.55,30.31 18.01,40.74 7.46,10.47 16.56,19.06 27.3,25.74 10.75,6.72 21.76,11.37 33.13,13.95 11.33,2.62 23.71,3.9 37.11,3.9 z m -43.52,-106.25 c -14.25,0 -26.36,-4.92 -36.25,-14.76 -9.92,-9.84 -14.88,-22.42 -14.88,-37.7 0,-15.58 5.12,-29.49 15.35,-41.68 10.24,-12.14 22.74,-18.24 37.46,-18.24 14.07,0 26.1,5.7 36.17,17.19 10.08,11.44 15.12,25.04 15.12,40.74 0,16.17 -5.23,29.26 -15.7,39.34 -10.43,10.08 -22.85,15.11 -37.27,15.11 z m 232.62,79.46 c -5.31,1.79 -10.63,2.73 -15.94,2.73 -5.31,0 -10.62,-0.9 -15.93,-2.65 -5.32,-1.8 -10.75,-4.93 -16.29,-9.46 -5.55,-4.57 -10.43,-10.19 -14.69,-16.95 -4.26,-6.76 -7.74,-15.59 -10.47,-26.56 -2.7,-10.94 -4.06,-23.25 -4.06,-36.84 0,-14.73 1.36,-28.01 4.06,-39.76 2.73,-11.8 6.21,-21.33 10.47,-28.56 4.26,-7.27 9.18,-13.32 14.76,-18.2 5.59,-4.85 11.06,-8.28 16.45,-10.2 5.35,-1.95 10.74,-2.89 16.17,-2.89 4.34,0 8.71,0.67 13.13,2.07 4.41,1.37 8.98,3.52 13.71,6.37 4.68,2.89 9.06,6.91 13.08,12.15 4.07,5.19 7.7,11.29 10.9,18.24 3.2,6.99 5.74,15.55 7.62,25.74 1.87,10.16 2.85,21.41 2.85,33.71 0,13.83 -1.37,26.29 -4.1,37.42 -2.7,11.14 -6.17,20.12 -10.43,27 -4.26,6.83 -9.22,12.54 -14.88,17.07 -5.63,4.53 -11.1,7.73 -16.41,9.57 z m -15.94,28.12 c 7.74,0 15.43,-1.09 23.13,-3.32 7.69,-2.22 15.66,-6.17 23.83,-11.87 8.2,-5.71 15.35,-12.85 21.52,-21.49 6.13,-8.63 11.21,-20 15.19,-34.14 3.99,-14.1 5.98,-30 5.98,-47.69 0,-18.6 -1.99,-35.28 -5.9,-50 -3.94,-14.73 -8.98,-26.57 -15.11,-35.59 -6.14,-9.02 -13.29,-16.52 -21.41,-22.5 -8.16,-5.98 -16.02,-10.12 -23.67,-12.38 -7.62,-2.27 -15.32,-3.4 -23.09,-3.4 -5.43,0 -10.86,0.59 -16.33,1.76 -5.5,1.13 -11.21,3.12 -17.18,5.97 -5.98,2.82 -11.65,6.37 -16.96,10.63 -5.31,4.26 -10.39,9.69 -15.27,16.33 -4.84,6.64 -9.02,14.14 -12.54,22.5 -3.48,8.36 -6.25,18.28 -8.36,29.72 -2.11,11.45 -3.16,23.87 -3.16,37.27 0,12.73 1.01,24.57 3.08,35.55 2.03,10.93 4.85,20.39 8.36,28.28 3.56,7.93 7.74,15.04 12.54,21.33 4.81,6.32 9.88,11.48 15.2,15.54 5.31,4.03 10.93,7.39 16.83,10.12 5.94,2.7 11.64,4.61 17.11,5.74 5.47,1.1 10.9,1.64 16.21,1.64 z" /><path
         id="path22"
         style="fill:#4a617d;fill-opacity:1;fill-rule:evenodd;stroke:none"
         d="m 507.34,1146.41 c 0,6.83 0.82,13 2.461,18.47 1.648,5.51 3.828,9.96 6.57,13.48 2.688,3.48 5.93,6.37 9.609,8.67 3.711,2.35 7.461,3.99 11.321,4.92 3.871,0.98 7.929,1.49 12.148,1.49 8.321,0 16.449,-1.76 24.34,-5.2 l -3.519,-10.54 c -6.481,2.22 -12.848,3.32 -19.059,3.32 -3.051,0 -5.941,-0.28 -8.633,-0.82 -2.699,-0.55 -5.348,-1.57 -8.047,-3.05 -2.652,-1.45 -4.922,-3.36 -6.832,-5.67 -1.918,-2.3 -3.437,-5.35 -4.609,-9.1 -1.18,-3.75 -1.762,-8.04 -1.762,-12.89 0,-5.35 0.621,-10.04 1.832,-14.14 1.25,-4.06 2.86,-7.34 4.852,-9.88 1.988,-2.5 4.367,-4.57 7.148,-6.13 2.77,-1.61 5.578,-2.7 8.43,-3.32 2.859,-0.59 5.898,-0.9 9.18,-0.9 5.511,0 11.019,0.97 16.531,2.89 l 3.508,-9.92 c -8.321,-3.25 -16.637,-4.85 -25.039,-4.85 -3.86,0 -7.571,0.39 -11.129,1.14 -3.52,0.78 -7.153,2.14 -10.782,4.17 -3.668,2.04 -6.839,4.61 -9.488,7.7 -2.699,3.13 -4.851,7.27 -6.531,12.42 -1.68,5.2 -2.5,11.1 -2.5,17.74 z m 121.14,47.11 c 6.442,0 11.872,-0.75 16.36,-2.27 4.5,-1.48 7.93,-3.67 10.39,-6.52 2.43,-2.89 4.18,-6.06 5.239,-9.57 1.051,-3.52 1.562,-7.58 1.562,-12.15 V 1105 H 651.84 l -3.32,7.93 c -7.11,-6.45 -15.239,-9.69 -24.461,-9.69 -8.2,0 -15.149,2.46 -20.821,7.42 -5.699,4.96 -8.508,10.75 -8.508,17.39 0,3.51 0.622,6.68 1.911,9.49 1.289,2.81 3.16,5.16 5.589,7.03 2.418,1.88 5.192,3.44 8.321,4.77 3.078,1.32 6.719,2.34 10.82,3.04 4.141,0.71 8.277,1.21 12.457,1.49 4.141,0.31 8.711,0.43 13.711,0.43 v 6.87 c 0,1.99 -0.078,3.71 -0.238,5.2 -0.153,1.44 -0.621,3.2 -1.442,5.27 -0.82,2.03 -1.91,3.71 -3.32,5.04 -1.41,1.33 -3.519,2.46 -6.328,3.44 -2.813,0.93 -6.172,1.44 -10.039,1.44 -5.973,0 -13.711,-1.33 -23.203,-3.94 l -2.739,10.54 c 9.61,3.56 19.032,5.36 28.25,5.36 z m 19.059,-70.04 v 19.92 h -5.348 c -3.363,0 -6.25,-0.04 -8.711,-0.16 -2.46,-0.12 -5.359,-0.47 -8.679,-1.01 -3.321,-0.55 -6.012,-1.33 -8.121,-2.35 -2.11,-0.97 -3.91,-2.42 -5.391,-4.33 -1.519,-1.92 -2.269,-4.18 -2.269,-6.8 0,-3.71 1.878,-6.99 5.589,-9.84 3.711,-2.89 8.161,-4.34 13.321,-4.34 7.582,0 14.101,2.97 19.609,8.91 z m 56.25,68.36 2.731,-6.49 c 7.308,5.43 15.39,8.17 24.261,8.17 6.098,0 11.598,-1.14 16.598,-3.44 l -4.41,-11.53 c -4.571,1.76 -9.297,2.66 -14.219,2.66 -7.34,0 -14.219,-2.03 -20.66,-6.05 V 1105 h -14.418 v 86.84 z m 125.231,39.02 c 14.07,0 27.46,-3.56 40.16,-10.63 l -5.86,-11.17 c -4.449,2.35 -9.648,4.38 -15.59,6.06 -5.89,1.72 -11.871,2.58 -17.929,2.58 -6.129,0 -12.071,-1.18 -17.77,-3.44 -5.742,-2.31 -10.82,-5.51 -15.269,-9.65 -4.461,-4.1 -8.012,-9.34 -10.672,-15.63 -2.649,-6.28 -3.981,-13.2 -3.981,-20.7 0,-9.88 2.192,-18.79 6.563,-26.72 4.418,-7.89 10.469,-14.06 18.207,-18.44 7.73,-4.41 16.359,-6.6 25.93,-6.6 11.293,0 20.511,3.4 27.582,10.2 v 31.91 h -35.512 v 12.31 h 50.043 v -49.06 c -1.602,-1.8 -3.442,-3.56 -5.512,-5.28 -2.07,-1.68 -5,-3.67 -8.711,-5.9 -3.711,-2.22 -8.277,-4.02 -13.75,-5.39 -5.429,-1.36 -11.328,-2.07 -17.648,-2.07 -8.321,0 -15.981,1.25 -23.012,3.75 -6.988,2.46 -12.848,5.82 -17.617,9.96 -4.723,4.18 -8.75,9.03 -12.031,14.53 -3.282,5.55 -5.661,11.33 -7.192,17.39 -1.519,6.01 -2.301,12.18 -2.301,18.43 0,6.57 0.821,12.93 2.5,19.15 1.68,6.17 4.262,11.95 7.692,17.34 3.48,5.39 7.621,10.08 12.43,14.1 4.839,4.02 10.621,7.19 17.378,9.49 6.723,2.31 14.024,3.48 21.872,3.48 z m 136.761,0.35 c 8.278,0 15.981,-1.44 23.168,-4.33 7.18,-2.93 13.391,-7 18.631,-12.27 5.23,-5.27 9.37,-11.88 12.34,-19.73 3.01,-7.89 4.49,-16.56 4.49,-25.97 0,-12.78 -2.53,-24.14 -7.61,-34.07 -5.08,-9.92 -12.11,-17.61 -21.101,-23.04 -8.98,-5.39 -19.179,-8.13 -30.539,-8.13 -7.5,0 -14.648,1.33 -21.531,4.03 -6.828,2.65 -13.039,6.52 -18.551,11.64 -5.508,5.07 -9.879,11.75 -13.168,20 -3.281,8.2 -4.922,17.5 -4.922,27.81 0,9.65 1.492,18.51 4.492,26.52 2.969,8.05 7.071,14.81 12.309,20.28 5.191,5.46 11.41,9.72 18.633,12.73 7.187,3.01 15,4.53 23.359,4.53 z M 965,1218.12 c -5.352,0 -10.469,-1.01 -15.391,-3 -4.918,-2 -9.449,-4.89 -13.589,-8.75 -4.11,-3.83 -7.43,-8.99 -9.93,-15.47 -2.5,-6.45 -3.711,-13.75 -3.711,-21.92 0,-7.77 1.141,-15 3.402,-21.56 2.309,-6.6 5.391,-12.11 9.34,-16.56 3.899,-4.45 8.551,-7.93 13.899,-10.39 5.39,-2.46 11.14,-3.67 17.308,-3.67 4.141,0 8.242,0.58 12.223,1.83 4.027,1.21 7.898,3.17 11.57,5.82 3.707,2.7 6.949,5.94 9.719,9.81 2.78,3.86 5,8.67 6.68,14.33 1.68,5.71 2.5,11.92 2.5,18.71 0,6.92 -0.86,13.25 -2.61,18.99 -1.76,5.74 -4.11,10.55 -7,14.41 -2.93,3.87 -6.289,7.15 -10.109,9.81 -3.832,2.65 -7.821,4.61 -11.879,5.82 -4.063,1.17 -8.203,1.79 -12.422,1.79 z m 174.18,-24.6 c 12.03,0 21.91,-3.83 29.69,-11.53 7.73,-7.65 11.64,-18.28 11.64,-31.79 0,-14.38 -3.99,-25.79 -11.92,-34.26 -7.93,-8.48 -18.2,-12.7 -30.82,-12.7 -11.99,0 -21.79,3.99 -29.41,11.92 -7.62,7.93 -11.45,18.71 -11.45,32.3 0,13.99 3.87,25.16 11.64,33.52 7.78,8.36 17.97,12.54 30.63,12.54 z m -1.21,-12.31 c -7.23,0 -13.52,-2.77 -18.91,-8.36 -5.39,-5.55 -8.08,-13.2 -8.08,-22.93 0,-9.69 2.65,-17.81 7.93,-24.45 5.27,-6.6 12.07,-9.92 20.47,-9.92 7.73,0 14.17,2.93 19.33,8.79 5.16,5.86 7.74,13.51 7.74,22.93 0,5.39 -0.86,10.31 -2.5,14.68 -1.68,4.42 -3.87,7.97 -6.61,10.75 -2.73,2.73 -5.74,4.84 -9.1,6.32 -3.32,1.45 -6.76,2.19 -10.27,2.19 z m 69.76,-76.21 v 86.84 h 10.12 l 3.17,-7.39 c 11.21,6.1 21.4,9.14 30.58,9.14 4.77,0 8.87,-0.74 12.38,-2.22 3.52,-1.53 6.25,-3.4 8.21,-5.63 1.91,-2.26 3.43,-5.12 4.61,-8.55 1.13,-3.4 1.87,-6.68 2.18,-9.77 0.32,-3.12 0.47,-6.68 0.47,-10.66 V 1105 h -14.41 v 52.73 c 0,15.24 -6.56,22.86 -19.69,22.86 -6.8,0 -14.53,-2.27 -23.2,-6.76 V 1105 Z m 196.72,11.33 2.03,-9.85 c -8.51,-2.14 -15.11,-3.24 -19.88,-3.24 -4.72,0 -8.75,0.78 -12.03,2.31 -3.28,1.52 -5.78,3.67 -7.46,6.48 -1.72,2.81 -2.93,5.86 -3.67,9.1 -0.74,3.25 -1.1,6.99 -1.1,11.21 v 48.17 h -11.68 v 11.33 h 11.68 v 24.88 h 14.42 v -24.88 h 26.44 v -11.33 h -26.44 v -48.01 c 0,-11.99 4.76,-18.01 14.26,-18.01 1.68,0 6.17,0.63 13.43,1.84 z m 62.5,64.26 c -6.87,0 -14.61,-2.27 -23.2,-6.76 V 1105 h -14.41 v 132.81 h 14.41 v -52.58 c 10.23,5.47 19.84,8.21 28.83,8.21 3.87,0 7.3,-0.51 10.39,-1.53 3.08,-0.97 5.62,-2.22 7.62,-3.71 1.99,-1.52 3.71,-3.43 5.11,-5.82 1.45,-2.38 2.54,-4.61 3.28,-6.68 0.71,-2.07 1.29,-4.53 1.64,-7.42 0.4,-2.85 0.63,-5.19 0.71,-7.03 0.12,-1.8 0.15,-3.95 0.15,-6.41 V 1105 h -14.76 v 52.46 c 0,15.43 -6.6,23.13 -19.77,23.13 z m 103.52,12.93 c 4.22,0 8.01,-0.51 11.37,-1.57 3.39,-1.01 6.17,-2.3 8.39,-3.9 2.23,-1.57 4.15,-3.64 5.79,-6.17 1.6,-2.58 2.81,-5.04 3.67,-7.39 0.86,-2.38 1.52,-5.23 1.99,-8.59 0.47,-3.32 0.74,-6.21 0.86,-8.67 0.12,-2.46 0.19,-5.39 0.19,-8.71 v -6.88 h -59.68 c 0,-3.16 0.7,-6.29 2.15,-9.45 1.44,-3.13 3.47,-5.98 6.05,-8.6 2.62,-2.61 6.05,-4.72 10.31,-6.36 4.22,-1.64 8.95,-2.46 14.1,-2.46 6.1,0 12.7,1.05 19.77,3.16 l 2.54,-9.84 c -9.42,-3.25 -18.67,-4.85 -27.77,-4.85 -6.37,0 -12.04,0.86 -17,2.54 -4.96,1.72 -8.94,3.91 -11.95,6.64 -3.01,2.74 -5.51,6.02 -7.42,9.81 -1.95,3.82 -3.28,7.61 -4.03,11.36 -0.7,3.79 -1.09,7.82 -1.09,12.03 0,6.49 0.82,12.43 2.38,17.82 1.61,5.39 3.71,9.92 6.41,13.59 2.7,3.67 5.86,6.76 9.45,9.26 3.6,2.54 7.39,4.37 11.33,5.51 3.99,1.13 8.05,1.72 12.19,1.72 z m -3.09,-12.5 c -5.15,0 -9.57,-1.41 -13.32,-4.26 -3.71,-2.85 -6.4,-6.37 -8.12,-10.59 -1.68,-4.22 -2.54,-8.75 -2.54,-13.63 h 45.35 c 0,18.98 -7.11,28.48 -21.37,28.48 z m 176.76,49.84 c 14.06,0 27.46,-3.56 40.16,-10.63 l -5.86,-11.17 c -4.46,2.35 -9.65,4.38 -15.59,6.06 -5.9,1.72 -11.87,2.58 -17.93,2.58 -6.13,0 -12.07,-1.18 -17.77,-3.44 -5.74,-2.31 -10.82,-5.51 -15.27,-9.65 -4.46,-4.1 -8.01,-9.34 -10.67,-15.63 -2.66,-6.28 -3.98,-13.2 -3.98,-20.7 0,-9.88 2.18,-18.79 6.56,-26.72 4.41,-7.89 10.47,-14.06 18.2,-18.44 7.74,-4.41 16.37,-6.6 25.94,-6.6 11.29,0 20.51,3.4 27.58,10.2 v 31.91 H 1740 v 12.31 h 50.04 v -49.06 c -1.6,-1.8 -3.44,-3.56 -5.51,-5.28 -2.07,-1.68 -5,-3.67 -8.71,-5.9 -3.71,-2.22 -8.28,-4.02 -13.75,-5.39 -5.43,-1.36 -11.33,-2.07 -17.66,-2.07 -8.32,0 -15.97,1.25 -23,3.75 -7,2.46 -12.86,5.82 -17.62,9.96 -4.73,4.18 -8.75,9.03 -12.03,14.53 -3.28,5.55 -5.67,11.33 -7.19,17.39 -1.52,6.01 -2.3,12.18 -2.3,18.43 0,6.57 0.82,12.93 2.5,19.15 1.68,6.17 4.25,11.95 7.69,17.34 3.48,5.39 7.62,10.08 12.42,14.1 4.85,4.02 10.63,7.19 17.39,9.49 6.71,2.31 14.02,3.48 21.87,3.48 z m 136.76,0.35 c 8.28,0 15.98,-1.44 23.16,-4.33 7.19,-2.93 13.4,-7 18.64,-12.27 5.23,-5.27 9.37,-11.88 12.34,-19.73 3.01,-7.89 4.49,-16.56 4.49,-25.97 0,-12.78 -2.54,-24.14 -7.62,-34.07 -5.07,-9.92 -12.11,-17.61 -21.09,-23.04 -8.98,-5.39 -19.18,-8.13 -30.55,-8.13 -7.5,0 -14.65,1.33 -21.52,4.03 -6.84,2.65 -13.05,6.52 -18.55,11.64 -5.51,5.07 -9.89,11.75 -13.17,20 -3.28,8.2 -4.92,17.5 -4.92,27.81 0,9.65 1.48,18.51 4.49,26.52 2.97,8.05 7.07,14.81 12.31,20.28 5.19,5.46 11.4,9.72 18.63,12.73 7.19,3.01 15,4.53 23.36,4.53 z m -0.78,-13.09 c -5.35,0 -10.47,-1.01 -15.39,-3 -4.93,-2 -9.46,-4.89 -13.6,-8.75 -4.1,-3.83 -7.42,-8.99 -9.92,-15.47 -2.5,-6.45 -3.71,-13.75 -3.71,-21.92 0,-7.77 1.13,-15 3.4,-21.56 2.3,-6.6 5.39,-12.11 9.33,-16.56 3.91,-4.45 8.56,-7.93 13.91,-10.39 5.39,-2.46 11.13,-3.67 17.31,-3.67 4.14,0 8.24,0.58 12.22,1.83 4.03,1.21 7.89,3.17 11.56,5.82 3.72,2.7 6.96,5.94 9.73,9.81 2.77,3.86 5,8.67 6.68,14.33 1.68,5.71 2.5,11.92 2.5,18.71 0,6.92 -0.86,13.25 -2.62,18.99 -1.75,5.74 -4.1,10.55 -6.99,14.41 -2.93,3.87 -6.29,7.15 -10.12,9.81 -3.82,2.65 -7.81,4.61 -11.87,5.82 -4.06,1.17 -8.2,1.79 -12.42,1.79 z" /></g></g></svg>